<svg xmlns="http://www.w3.org/2000/svg" xmlns:xlink="http://www.w3.org/1999/xlink" id="Capa_1" x="0" y="0" version="1.1" viewBox="0 0 491.608 491.608" style="enable-background:new 0 0 491.608 491.608" xml:space="preserve"><path id="XMLID_157_" d="M0,0v491.608h491.608V0H0z M458.834,458.834H357.536v-34.006h67.291V66.78h-99.81v32.774h67.036v131.983	h-34.518v-97.466H134.071v223.465h114.461v-32.774h-81.687V166.845h91.377v33.767h-57.61v90.384h90.384v-32.774h-57.61v-24.837	h57.61v-66.54h33.767v157.917h-36.615v32.774h69.389v-93.225h34.518v127.742h-292.5v-57.482H66.78v90.256h257.982v34.006H32.774	V157.075H66.78v141.978h32.773V99.554h191.314V66.78H66.78v57.521H32.774V32.774h426.059V458.834z"/></svg>